# xmcd
#
# Track frame offsets:
#	150
#	14070
#	26638
#	41685
#	56341
#	75512
#	100358
#	112224
#	127206
#	143821
#	157030
#	169689
#	185935
#	199363
#	212910
#	223774
#	239105
#	249807
#	264536
#	277823
#	301577
#
# Disc length: 4272 seconds
#
# Revision: 1
# Processed by: cddbd v1.5.2PL0 Copyright (c) Steve Scherf et al.
# Submitted via: audiograbber 1.83.01
#
DISCID=4110ae15
DTITLE=jimmy witherspoon (US) - eight classic albums cd1
DYEAR=2014
DGENRE=blues
TTITLE0=jumpin' the blues
TTITLE1=until the real thing comes along
TTITLE2=hootie blues
TTITLE3=rain is such a lonesome sound
TTITLE4=confessin' the blues
TTITLE5=piney brown blues
TTITLE6=froggy bottom
TTITLE7=gee baby, ain't i good to you
TTITLE8=blue monday
TTITLE9=ooo wee baby, then the lights go out
TTITLE10=s. k. blues
TTITLE11=when i been drinkin'
TTITLE12=ooo wee baby, then the lights go out
TTITLE13=all that's good
TTITLE14=spoons blues
TTITLE15=it ain't what you're thinkin
TTITLE16=ain't nobody's bizness if i do
TTITLE17=wee baby blues
TTITLE18=times are changing
TTITLE19=sweet's blues
TTITLE20=good rockin tonight
EXTD=
EXTT0=
EXTT1=
EXTT2=
EXTT3=
EXTT4=
EXTT5=
EXTT6=
EXTT7=
EXTT8=
EXTT9=
EXTT10=
EXTT11=
EXTT12=
EXTT13=
EXTT14=
EXTT15=
EXTT16=
EXTT17=
EXTT18=
EXTT19=
EXTT20=
PLAYORDER=
